<svg width="32" height="32" viewBox="0 0 32 32" fill="none" xmlns="http://www.w3.org/2000/svg">
<path d="M21.2306 19.6966C24.0209 18.1326 26.1361 16.9409 26.3185 16.8482C26.9017 16.5316 27.504 15.6936 26.3185 15.0426C25.9357 14.8379 23.8748 13.6833 21.2306 12.1942L17.565 15.9732L21.2306 19.6966Z" fill="#FFD900"/>
<path d="M17.565 15.9732L5.89348 27.9815C6.16744 28.0185 6.47673 27.9444 6.84137 27.7397C7.60694 27.3119 15.7227 22.7875 21.2306 19.6975L17.565 15.9732Z" fill="#F43249"/>
<path d="M17.565 15.9732L21.2306 12.2128C21.2306 12.2128 7.6623 4.65374 6.84137 4.20752C6.53209 4.02052 6.18549 3.96498 5.87534 4.02052L17.565 15.9732Z" fill="#00EE76"/>
<path d="M17.565 15.9732L5.87534 4.02052C5.40092 4.13249 5 4.56037 5 5.43544V26.5666C5 27.3675 5.31023 27.9444 5.89348 28L17.565 15.9732Z" fill="#00D3FF"/>
</svg>
