<svg width="32" height="32" viewBox="0 0 32 32" fill="none" xmlns="http://www.w3.org/2000/svg">
<path d="M28.8401 20.9602C28.0065 19.9506 27.0254 19.0889 26.0971 18.1739C25.2597 17.3491 25.2069 16.8706 25.8801 15.9187C26.6148 14.8798 27.4049 13.8806 28.1463 12.8464C28.8384 11.8798 29.5458 10.9159 29.91 9.75854C30.141 9.02225 29.9367 8.69703 29.1889 8.56811C29.0601 8.54555 28.9269 8.54438 28.7957 8.54438L24.3593 8.53911C23.8129 8.5309 23.5108 8.77145 23.3176 9.26045C23.0567 9.92144 22.7877 10.5818 22.4769 11.2197C21.7718 12.6659 20.9843 14.0638 19.8802 15.2475C19.6367 15.5085 19.3674 15.8384 18.9606 15.7025C18.4516 15.515 18.3016 14.6682 18.31 14.382L18.3057 9.21152C18.207 8.47289 18.0448 8.14357 17.3185 8L12.71 8.00088C12.0948 8.00088 11.7864 8.24084 11.4579 8.62935C11.2684 8.85378 11.2112 8.9994 11.6006 9.07382C12.3655 9.22031 12.7964 9.72016 12.9108 10.4945C13.0942 11.7318 13.0814 12.9741 12.9758 14.2164C12.9447 14.5791 12.8829 14.941 12.7404 15.2797C12.5176 15.8121 12.1578 15.9205 11.6851 15.5929C11.2571 15.2964 10.9565 14.878 10.6622 14.4578C9.55696 12.881 8.67512 11.1804 7.95607 9.39347C7.7483 8.87722 7.38994 8.5643 6.84819 8.55581C5.51716 8.53442 4.18585 8.5309 2.85482 8.55698C2.05394 8.57221 1.81513 8.96482 2.14129 9.69789C3.59099 12.9539 5.20465 16.1194 7.31101 19.003C8.39249 20.4829 9.63414 21.7894 11.2382 22.7152C13.0562 23.7647 15.0131 24.0806 17.0742 23.9833C18.0393 23.9376 18.3292 23.6842 18.3739 22.7129C18.404 22.0484 18.4786 21.3877 18.8033 20.7906C19.1219 20.2046 19.6045 20.093 20.1608 20.4574C20.439 20.64 20.6735 20.8723 20.8949 21.1173C21.4381 21.7173 21.9619 22.3355 22.5257 22.9154C23.2328 23.642 24.0706 24.0712 25.1239 23.9836L29.2014 23.9845C29.8583 23.9411 30.199 23.1278 29.8218 22.3874C29.5569 21.8688 29.2092 21.407 28.8401 20.9602Z" fill="#0177FF"/>
</svg>
