<svg width="32" height="32" viewBox="0 0 32 32" fill="none" xmlns="http://www.w3.org/2000/svg">
<path fill-rule="evenodd" clip-rule="evenodd" d="M28.8 15.9992C28.8 23.068 23.0688 28.7992 16 28.7992C8.93121 28.7992 3.20001 23.068 3.20001 15.9992C3.20001 8.93042 8.93121 3.19922 16 3.19922C23.0688 3.19922 28.8 8.93042 28.8 15.9992ZM16.4587 12.6488C15.2139 13.1662 12.7253 14.2382 8.99415 15.8638C8.38828 16.1048 8.07041 16.3406 8.04161 16.571C7.99255 16.9614 8.48108 17.115 9.14455 17.323C9.23521 17.3518 9.32908 17.3806 9.42508 17.4126C10.0789 17.6248 10.9579 17.8734 11.4144 17.883C11.8293 17.8915 12.2923 17.7208 12.8032 17.371C16.2891 15.0168 18.0885 13.8275 18.2016 13.8019C18.2816 13.7838 18.3925 13.7603 18.4672 13.8275C18.5419 13.8936 18.5344 14.0195 18.5269 14.0536C18.4779 14.2595 16.5643 16.0398 15.5723 16.9614C15.2629 17.2483 15.0443 17.452 14.9995 17.499C14.8992 17.6024 14.7968 17.7016 14.6987 17.7966C14.0907 18.3811 13.6363 18.8206 14.7243 19.5374C15.2469 19.8819 15.6651 20.1667 16.0821 20.4504C16.5376 20.7608 16.992 21.0702 17.5808 21.4563C17.7301 21.5544 17.8731 21.6558 18.0128 21.755C18.5429 22.1336 19.0197 22.4728 19.6085 22.4195C19.9499 22.3875 20.304 22.0664 20.4832 21.1075C20.9067 18.8398 21.7408 13.9288 21.9339 11.9043C21.9456 11.7362 21.9385 11.5673 21.9125 11.4008C21.897 11.2663 21.8315 11.1426 21.7291 11.0542C21.5765 10.9294 21.3397 10.9027 21.2331 10.9048C20.752 10.9134 20.0139 11.1704 16.4587 12.6488Z" fill="#23A9EA"/>
</svg>
