<svg width="32" height="32" viewBox="0 0 32 32" fill="none" xmlns="http://www.w3.org/2000/svg">
<path d="M17.8799 15.9996L23.6132 10.2796C23.8643 10.0285 24.0054 9.688 24.0054 9.33293C24.0054 8.97786 23.8643 8.63733 23.6132 8.38626C23.3622 8.13519 23.0217 7.99414 22.6666 7.99414C22.3115 7.99414 21.971 8.13519 21.7199 8.38626L15.9999 14.1196L10.2799 8.38626C10.0288 8.13519 9.68832 7.99414 9.33325 7.99414C8.97818 7.99414 8.63766 8.13519 8.38659 8.38626C8.13551 8.63733 7.99446 8.97786 7.99446 9.33293C7.99446 9.688 8.13551 10.0285 8.38659 10.2796L14.1199 15.9996L8.38659 21.7196C8.26161 21.8435 8.16242 21.991 8.09473 22.1535C8.02704 22.316 7.99219 22.4902 7.99219 22.6663C7.99219 22.8423 8.02704 23.0166 8.09473 23.179C8.16242 23.3415 8.26161 23.489 8.38659 23.6129C8.51054 23.7379 8.658 23.8371 8.82048 23.9048C8.98296 23.9725 9.15724 24.0073 9.33325 24.0073C9.50927 24.0073 9.68354 23.9725 9.84602 23.9048C10.0085 23.8371 10.156 23.7379 10.2799 23.6129L15.9999 17.8796L21.7199 23.6129C21.8439 23.7379 21.9913 23.8371 22.1538 23.9048C22.3163 23.9725 22.4906 24.0073 22.6666 24.0073C22.8426 24.0073 23.0169 23.9725 23.1794 23.9048C23.3418 23.8371 23.4893 23.7379 23.6132 23.6129C23.7382 23.489 23.8374 23.3415 23.9051 23.179C23.9728 23.0166 24.0076 22.8423 24.0076 22.6663C24.0076 22.4902 23.9728 22.316 23.9051 22.1535C23.8374 21.991 23.7382 21.8435 23.6132 21.7196L17.8799 15.9996Z" fill="white"/>
</svg>
