<svg width="18" height="22" viewBox="0 0 18 22" fill="none" xmlns="http://www.w3.org/2000/svg">
<path d="M13.3752 0.0110096C13.3285 -0.0412404 11.6441 0.0316347 10.1784 1.62251C8.71261 3.21201 8.93811 5.03526 8.97111 5.08201C9.00411 5.12876 11.0611 5.20163 12.3742 3.35226C13.6874 1.50288 13.422 0.0646346 13.3752 0.0110096ZM17.932 16.1439C17.866 16.0119 14.7351 14.4471 15.0266 11.4386C15.3181 8.42876 17.3297 7.60376 17.3614 7.51439C17.393 7.42501 16.5405 6.42814 15.6371 5.92351C14.9738 5.56773 14.2397 5.3639 13.488 5.32676C13.3395 5.32263 12.8239 5.19613 11.7637 5.48626C11.0652 5.67738 9.49086 6.29614 9.05774 6.32089C8.62324 6.34564 7.33074 5.60313 5.94061 5.40651C5.05099 5.23463 4.10774 5.58664 3.43261 5.85751C2.75886 6.12701 1.47736 6.89426 0.580865 8.93338C-0.315635 10.9711 0.15324 14.1996 0.48874 15.2034C0.82424 16.2058 1.34811 17.8489 2.23911 19.0479C3.03111 20.4009 4.08161 21.34 4.52024 21.659C4.95886 21.978 6.19636 22.1898 7.05436 21.7511C7.74461 21.3276 8.99036 21.0843 9.48261 21.1021C9.97349 21.12 10.9415 21.3139 11.9329 21.8433C12.718 22.1141 13.4605 22.0014 14.2044 21.6989C14.9482 21.395 16.0249 20.2428 17.2816 17.9066C17.7587 16.8204 17.976 16.2333 17.932 16.1439Z" fill="white"/>
<path d="M13.3752 0.0110096C13.3285 -0.0412404 11.6441 0.0316347 10.1784 1.62251C8.71261 3.21201 8.93811 5.03526 8.97111 5.08201C9.00411 5.12876 11.0611 5.20163 12.3742 3.35226C13.6874 1.50288 13.422 0.0646346 13.3752 0.0110096ZM17.932 16.1439C17.866 16.0119 14.7351 14.4471 15.0266 11.4386C15.3181 8.42876 17.3297 7.60376 17.3614 7.51439C17.393 7.42501 16.5405 6.42814 15.6371 5.92351C14.9738 5.56773 14.2397 5.3639 13.488 5.32676C13.3395 5.32263 12.8239 5.19613 11.7637 5.48626C11.0652 5.67738 9.49086 6.29614 9.05774 6.32089C8.62324 6.34564 7.33074 5.60313 5.94061 5.40651C5.05099 5.23463 4.10774 5.58664 3.43261 5.85751C2.75886 6.12701 1.47736 6.89426 0.580865 8.93338C-0.315635 10.9711 0.15324 14.1996 0.48874 15.2034C0.82424 16.2058 1.34811 17.8489 2.23911 19.0479C3.03111 20.4009 4.08161 21.34 4.52024 21.659C4.95886 21.978 6.19636 22.1898 7.05436 21.7511C7.74461 21.3276 8.99036 21.0843 9.48261 21.1021C9.97349 21.12 10.9415 21.3139 11.9329 21.8433C12.718 22.1141 13.4605 22.0014 14.2044 21.6989C14.9482 21.395 16.0249 20.2428 17.2816 17.9066C17.7587 16.8204 17.976 16.2333 17.932 16.1439Z" fill="white"/>
</svg>
