<svg width="20" height="22" viewBox="0 0 20 22" fill="none" xmlns="http://www.w3.org/2000/svg">
<path d="M3.69888 16.6402C3.69888 17.2147 4.1964 17.6837 4.80854 17.6837H6.0771V20.6398C6.0771 21.3886 6.71529 22 7.49935 22C8.28601 22 8.92159 21.3911 8.92159 20.6398V17.6812H11.1357V20.6373C11.1357 21.3862 11.7739 21.9975 12.558 21.9975C13.3446 21.9975 13.9802 21.3886 13.9802 20.6373V17.6812H15.2488C15.8609 17.6812 16.3584 17.2123 16.3584 16.6377V6.9346H3.69888V16.6402ZM13.0008 1.90625L14.1704 0.31034C14.2381 0.217041 14.2224 0.0918232 14.1313 0.030442C14.0401 -0.028484 13.9099 0.000979178 13.8421 0.0942786L12.6283 1.75403C11.8286 1.45694 10.9377 1.29244 10.0026 1.29244C9.06746 1.29244 8.1766 1.45694 7.37692 1.75403L6.16306 0.0967338C6.09533 0.00343439 5.96509 -0.0284838 5.87392 0.0328974C5.78275 0.0918234 5.76712 0.214586 5.83485 0.312796L7.00443 1.90871C5.14457 2.72385 3.84214 4.2682 3.67543 6.07281H16.335C16.1631 4.26574 14.858 2.72139 13.0008 1.90625ZM7.33003 4.42288C7.19144 4.42288 7.05597 4.38415 6.94074 4.31157C6.82551 4.239 6.7357 4.13585 6.68267 4.01517C6.62963 3.89448 6.61575 3.76169 6.64279 3.63357C6.66983 3.50545 6.73656 3.38777 6.83456 3.2954C6.93255 3.20303 7.05741 3.14013 7.19333 3.11465C7.32925 3.08916 7.47014 3.10224 7.59818 3.15223C7.72621 3.20222 7.83565 3.28687 7.91264 3.39549C7.98964 3.5041 8.03073 3.63179 8.03073 3.76242C8.03025 3.93744 7.95627 4.10517 7.82497 4.22893C7.69367 4.3527 7.51572 4.42243 7.33003 4.42288ZM12.7585 4.42288C12.6199 4.42288 12.4845 4.38415 12.3692 4.31157C12.254 4.239 12.1642 4.13585 12.1112 4.01517C12.0581 3.89448 12.0442 3.76169 12.0713 3.63357C12.0983 3.50545 12.1651 3.38777 12.2631 3.2954C12.361 3.20303 12.4859 3.14013 12.6218 3.11465C12.7577 3.08916 12.8986 3.10224 13.0267 3.15223C13.1547 3.20222 13.2641 3.28687 13.3411 3.39549C13.4181 3.5041 13.4592 3.63179 13.4592 3.76242C13.4587 3.93744 13.3848 4.10517 13.2535 4.22893C13.1222 4.3527 12.9442 4.42243 12.7585 4.42288ZM18.5777 6.89532C17.7911 6.89532 17.1555 7.50422 17.1555 8.25552V13.5687C17.1555 14.3175 17.7937 14.9289 18.5777 14.9289C19.3644 14.9289 20 14.32 20 13.5687V8.25307C20.0026 7.50176 19.367 6.89532 18.5777 6.89532ZM1.42224 6.89532C0.635582 6.89532 0 7.50422 0 8.25552V13.5687C0 14.3175 0.638187 14.9289 1.42224 14.9289C2.20891 14.9289 2.84449 14.32 2.84449 13.5687V8.25307C2.84449 7.50176 2.2063 6.89532 1.42224 6.89532Z" fill="white"/>
</svg>
