<svg width="53" height="22" viewBox="0 0 53 22" fill="none" xmlns="http://www.w3.org/2000/svg">
<g clip-path="url(#clip0_1487_2420)">
<path d="M51.4029 14.3392V14.6067H51.0111V15.5357H50.7172V14.6067H50.3253V14.3392H51.4029Z" fill="white"/>
<path d="M52.5785 15.5357V14.6261L52.3336 15.5357H52.0887L51.7948 14.6261V15.5357H51.5009V14.3392H51.9907L52.1866 15.1369L52.3826 14.3392H52.8724V15.5357H52.5785Z" fill="white"/>
<path d="M39.1209 15.4676C38.6819 15.6524 38.2429 15.7449 37.799 15.7449C37.0966 15.7449 36.4625 15.6233 35.9015 15.3801C35.3406 15.1369 34.8674 14.8012 34.4821 14.3732C34.0968 13.9452 33.7992 13.4442 33.5943 12.8654C33.3895 12.2865 33.287 11.6639 33.287 10.9976C33.287 10.3117 33.3895 9.67942 33.5943 9.09087C33.7992 8.50232 34.0919 7.9916 34.4772 7.5587C34.8626 7.12094 35.3357 6.78046 35.8966 6.53239C36.4576 6.28432 37.0868 6.15786 37.7941 6.15786C38.2672 6.15786 38.7209 6.23082 39.1599 6.37188C39.5989 6.51293 39.9989 6.72209 40.3549 6.99447C40.711 7.26686 41.0037 7.60734 41.2329 8.01105C41.4622 8.41477 41.6036 8.87685 41.6573 9.3973H39.7354C39.6135 8.88658 39.3842 8.50232 39.0428 8.24453C38.7014 7.98673 38.2868 7.86027 37.7941 7.86027C37.3405 7.86027 36.9551 7.94782 36.6381 8.12293C36.321 8.29803 36.0625 8.53151 35.8674 8.82821C35.6723 9.12492 35.5259 9.46054 35.4381 9.83506C35.3503 10.2096 35.3016 10.5987 35.3016 11.0024C35.3016 11.3867 35.3455 11.7612 35.4381 12.126C35.5259 12.4908 35.6723 12.8167 35.8674 13.1086C36.0625 13.4004 36.321 13.6339 36.6381 13.809C36.9551 13.9841 37.3405 14.0716 37.7941 14.0716C38.4624 14.0716 38.9794 13.9014 39.3452 13.5658C39.7111 13.2302 39.9208 12.7438 39.9842 12.1017H37.9551V10.589H41.8036V15.5357H40.5208L40.3159 14.4997C39.9598 14.9618 39.5599 15.2828 39.1209 15.4676Z" fill="white"/>
<path d="M45.0766 6.38647V13.8333H49.5495V15.5308H43.0621V6.38647H45.0766Z" fill="white"/>
<path d="M35.5552 16.669C32.4773 18.5368 27.863 19.5972 22.7169 19.5972C13.4443 19.5972 5.93255 15.7497 5.93255 10.9976C5.93255 6.25028 13.4492 2.39797 22.7169 2.39797C27.8825 2.39797 32.5115 3.48264 35.5894 5.36016C32.2335 2.21313 26.2045 0.00486403 19.3171 0C8.76165 0 0.206055 4.9224 0.206055 10.9976C0.206055 17.0727 8.76165 22 19.3123 22C26.1753 22 32.1847 19.7966 35.5552 16.669Z" fill="white"/>
<path d="M10.8202 13.308L9.0421 5.67146H7.36197L9.99728 15.6281H11.5745L13.7935 7.80677L15.983 15.6281H17.5652L20.2936 5.67146H18.5155L16.7374 13.308L14.5919 5.67146H12.9657L10.8202 13.308Z" fill="white"/>
<path d="M24.7315 9.86425C24.4866 9.5189 24.178 9.25625 23.8155 9.07628C23.4432 8.89144 23.0122 8.79903 22.5321 8.79903C21.9933 8.79903 21.5084 8.89631 21.0871 9.08601C20.6903 9.26597 20.3524 9.53349 20.0781 9.87884C19.5735 10.516 19.309 11.4159 19.309 12.4811C19.309 12.9529 19.3776 13.4004 19.5098 13.7992C19.6421 14.203 19.8429 14.558 20.0976 14.8547C20.6365 15.4773 21.4055 15.8081 22.3215 15.8081C22.8015 15.8081 23.1934 15.7595 23.5216 15.6573C23.8057 15.5698 23.9967 15.453 24.1535 15.3509C24.3543 15.2195 24.5355 15.059 24.7021 14.8742C24.8392 14.7137 24.9617 14.5386 25.0695 14.3489C25.2556 14.0084 25.3487 13.6874 25.3683 13.522L25.3829 13.4101H24.0751L24.0702 13.5025C24.0359 13.9257 23.4775 14.6796 22.4831 14.6796C21.0626 14.6796 20.7246 13.6582 20.7001 12.7583H25.4613V12.6562C25.4613 12.0774 25.4025 11.5472 25.285 11.0851C25.1527 10.6036 24.9715 10.195 24.7315 9.86425ZM22.3803 9.96639C23.4334 9.96639 23.9967 10.5306 24.0996 11.6883H20.6903C20.7442 10.7495 21.4937 9.96639 22.3803 9.96639Z" fill="white"/>
<path d="M32.0398 10.8176C31.9124 10.4139 31.7263 10.0588 31.4863 9.7621C31.2365 9.45567 30.9328 9.21733 30.585 9.05196C30.2225 8.88171 29.8159 8.79416 29.3751 8.79416C28.9685 8.79903 28.6012 8.88658 28.2779 9.05682C28.0085 9.19301 27.7684 9.38758 27.5627 9.63078V6.57617H26.2598V15.6233H27.499V15.0055C27.6068 15.1466 27.7488 15.2974 27.935 15.4287C28.2877 15.6816 28.7236 15.8081 29.2281 15.8081C29.7719 15.8081 30.2617 15.6865 30.6732 15.4482C31.0405 15.2341 31.354 14.9277 31.5989 14.5386C31.8145 14.1981 31.9761 13.7944 32.0839 13.342C32.1769 12.9529 32.2259 12.5249 32.2259 12.1066C32.2308 11.6542 32.1671 11.2164 32.0398 10.8176ZM30.8691 12.2865C30.8691 12.9967 30.727 13.5901 30.4527 14.0084C30.1637 14.451 29.7425 14.6748 29.2037 14.6748C28.4248 14.6748 27.5137 14.1349 27.5137 12.6076C27.5137 11.878 27.6068 11.3137 27.7929 10.8857C28.0623 10.268 28.5179 9.97126 29.1792 9.97126C29.8845 9.97126 30.3597 10.2436 30.6242 10.8127C30.8397 11.2797 30.8691 11.8488 30.8691 12.2865Z" fill="white"/>
</g>
<defs>
<clipPath id="clip0_1487_2420">
<rect width="53" height="22" fill="white"/>
</clipPath>
</defs>
</svg>
