<svg width="26" height="20" viewBox="0 0 26 20" fill="none" xmlns="http://www.w3.org/2000/svg">
<path d="M0 1.66667C0 0.746192 0.77604 0 1.73333 0H24.2667C25.224 0 26 0.746192 26 1.66667C26 2.58714 25.224 3.33333 24.2667 3.33333H1.73333C0.77604 3.33333 0 2.58714 0 1.66667Z" fill="#FED106"/>
<path d="M0 10C0 9.07952 0.77604 8.33333 1.73333 8.33333H24.2667C25.224 8.33333 26 9.07952 26 10C26 10.9205 25.224 11.6667 24.2667 11.6667H1.73333C0.77604 11.6667 0 10.9205 0 10Z" fill="#FED106"/>
<path d="M0 18.3333C0 17.4129 0.77604 16.6667 1.73333 16.6667H24.2667C25.224 16.6667 26 17.4129 26 18.3333C26 19.2538 25.224 20 24.2667 20H1.73333C0.77604 20 0 19.2538 0 18.3333Z" fill="#FED106"/>
</svg>
