<svg width="24" height="14" viewBox="0 0 24 14" fill="none" xmlns="http://www.w3.org/2000/svg">
<path d="M0.300974 0.323529C0.702272 -0.107843 1.3529 -0.107843 1.7542 0.323528L12.723 12.1143C13.1243 12.5457 13.1243 13.2451 12.723 13.6765C12.3217 14.1078 11.6711 14.1078 11.2698 13.6765L0.300973 1.88566C-0.100325 1.45429 -0.100324 0.7549 0.300974 0.323529Z" fill="white"/>
<path d="M23.699 0.323529C23.2977 -0.107843 22.6471 -0.107843 22.2458 0.323528L11.277 12.1143C10.8757 12.5457 10.8757 13.2451 11.277 13.6765C11.6783 14.1078 12.3289 14.1078 12.7302 13.6765L23.699 1.88566C24.1003 1.45429 24.1003 0.7549 23.699 0.323529Z" fill="white"/>
</svg>
