<svg width="24" height="14" viewBox="0 0 24 14" fill="none" xmlns="http://www.w3.org/2000/svg">
<path d="M23.699 13.6765C23.2977 14.1078 22.6471 14.1078 22.2458 13.6765L11.277 1.88566C10.8757 1.45429 10.8757 0.754901 11.277 0.323529C11.6783 -0.107842 12.3289 -0.107842 12.7302 0.323529L23.699 12.1143C24.1003 12.5457 24.1003 13.2451 23.699 13.6765Z" fill="white"/>
<path d="M0.300972 13.6765C0.70227 14.1078 1.3529 14.1078 1.7542 13.6765L12.723 1.88566C13.1243 1.45429 13.1243 0.754901 12.723 0.323529C12.3217 -0.107842 11.6711 -0.107842 11.2698 0.323529L0.300972 12.1143C-0.100326 12.5457 -0.100326 13.2451 0.300972 13.6765Z" fill="white"/>
</svg>
