<?xml version="1.0" standalone="no"?>
<!DOCTYPE svg PUBLIC "-//W3C//DTD SVG 20010904//EN"
 "http://www.w3.org/TR/2001/REC-SVG-20010904/DTD/svg10.dtd">
<svg version="1.0" xmlns="http://www.w3.org/2000/svg"
 width="100.000000pt" height="99.000000pt" viewBox="0 0 100.000000 99.000000"
 preserveAspectRatio="xMidYMid meet">

<g transform="translate(0.000000,99.000000) scale(0.100000,-0.100000)"
fill="#000000" stroke="none">
<path d="M94 908 c-42 -20 -44 -43 -44 -419 l0 -360 25 -24 24 -25 406 0 406
0 24 25 25 24 0 368 c-1 387 -1 387 -47 411 -29 16 -788 16 -819 0z m340 -170
c13 -68 69 -258 75 -258 4 0 29 68 56 150 27 83 53 150 57 150 5 0 23 -6 41
-14 18 -7 63 -17 101 -21 l68 -7 -6 -41 c-18 -107 -37 -271 -43 -360 -6 -98
-17 -127 -48 -127 -27 0 -42 29 -59 112 -9 45 -19 93 -22 106 -4 21 -10 16
-53 -45 -96 -135 -106 -136 -175 -20 l-50 82 -25 -107 c-14 -59 -31 -112 -37
-118 -6 -6 -23 -8 -37 -5 -29 8 -31 15 -42 175 -4 47 -15 138 -26 203 -11 65
-17 123 -14 128 4 5 21 9 38 9 18 0 66 11 107 24 41 13 78 22 81 20 4 -2 9
-18 13 -36z"/>
</g>
</svg>
