<!DOCTYPE svg PUBLIC "-//W3C//DTD SVG 1.1//EN" "http://www.w3.org/Graphics/SVG/1.1/DTD/svg11.dtd">
<!-- Uploaded to: SVG Repo, www.svgrepo.com, Transformed by: SVG Repo Mixer Tools -->
<svg height="800px" width="800px" version="1.1" id="Capa_1" xmlns="http://www.w3.org/2000/svg" xmlns:xlink="http://www.w3.org/1999/xlink" viewBox="0 0 19.5 19.5" xml:space="preserve" fill="#000000">
<g id="SVGRepo_bgCarrier" stroke-width="0"/>
<g id="SVGRepo_tracerCarrier" stroke-linecap="round" stroke-linejoin="round"/>
<g id="SVGRepo_iconCarrier"> <g> <path style="fill:#ffffff;" d="M19.5,18.628l-0.164-2.409h-0.957v-0.625h-1.068l-0.273-2.375h-0.275v-0.291H15.97v0.274h-0.275 l-0.123,2.41h-0.5l-0.206,0.475l-0.795-0.442l-1.589-11.57l-1.021,0.014V3.448h-0.772V2.997c0.207-0.225,0.331-0.523,0.331-0.855 c0-0.7-0.568-1.27-1.268-1.27c-0.704,0-1.272,0.57-1.272,1.27c0,0.332,0.126,0.631,0.332,0.855v0.451H8.038v0.641L7.021,4.075 L5.432,15.643l-0.797,0.443l-0.204-0.474H3.928l-0.12-2.41H3.531v-0.274H2.74v0.291H2.465l-0.276,2.375H1.122v0.625H0.165L0,18.628 h8.966v-1.797h1.57v1.797H19.5z M8.623,7.226h2.256v5.238H8.623V7.226z M5.579,15.79h8.349l0.42,0.351l-0.203,0.127H5.48 l-0.272-0.23L5.579,15.79z"/> </g> </g>
</svg>