<svg width="32" height="32" viewBox="0 0 32 32" fill="none" xmlns="http://www.w3.org/2000/svg">
<path d="M16.0927 5.59961H16.2529C17.7326 5.60516 25.2301 5.66068 27.2516 6.21959C27.8627 6.39017 28.4196 6.72265 28.8666 7.18382C29.3135 7.64499 29.635 8.21869 29.7987 8.84758C29.9805 9.55085 30.1084 10.4818 30.1948 11.4423L30.2128 11.6347L30.2524 12.1159L30.2668 12.3084C30.3838 13.9999 30.3982 15.5841 30.4 15.9302V16.069C30.3982 16.428 30.382 18.1196 30.2524 19.8814L30.238 20.0758L30.2218 20.2682C30.1318 21.3268 29.9985 22.378 29.7987 23.1516C29.6355 23.7808 29.3142 24.3548 28.8672 24.816C28.4201 25.2772 27.863 25.6096 27.2516 25.7796C25.1634 26.357 17.2268 26.3978 16.1269 26.3996H15.8713C15.315 26.3996 13.0145 26.3885 10.6023 26.3034L10.2963 26.2923L10.1397 26.2849L9.83189 26.2719L9.52407 26.259C7.52595 26.1683 5.62323 26.0221 4.74657 25.7778C4.13542 25.6079 3.57842 25.2758 3.13138 24.8149C2.68433 24.354 2.36295 23.7804 2.19941 23.1516C1.9996 22.3799 1.86639 21.3268 1.77639 20.2682L1.76199 20.0739L1.74758 19.8814C1.65874 18.6274 1.60952 17.3707 1.59998 16.1134L1.59998 15.8858C1.60358 15.4879 1.61798 14.1128 1.71518 12.5952L1.72778 12.4046L1.73318 12.3084L1.74758 12.1159L1.78719 11.6347L1.80519 11.4423C1.89159 10.4818 2.0194 9.549 2.20121 8.84758C2.36447 8.21844 2.68574 7.64447 3.1328 7.18322C3.57985 6.72197 4.137 6.38966 4.74837 6.21959C5.62503 5.979 7.52775 5.83095 9.52587 5.73841L9.83189 5.72546L10.1415 5.71435L10.2963 5.7088L10.6041 5.69585C12.3173 5.63917 14.0312 5.6077 15.7453 5.60146H16.0927V5.59961ZM13.1207 11.5404V20.457L20.6038 16.0005L13.1207 11.5404Z" fill="white"/>
</svg>
