<svg width="32" height="32" viewBox="0 0 32 32" fill="none" xmlns="http://www.w3.org/2000/svg">
<path d="M16.0901 6H16.2459C17.6845 6.00534 24.9737 6.05872 26.9391 6.59614C27.5332 6.76015 28.0746 7.07985 28.5092 7.52328C28.9438 7.96671 29.2563 8.51835 29.4155 9.12305C29.5922 9.79927 29.7165 10.6944 29.8005 11.6179L29.818 11.803L29.8565 12.2657L29.8705 12.4508C29.9843 14.0772 29.9982 15.6005 30 15.9333V16.0667C29.9982 16.412 29.9825 18.0384 29.8565 19.7325L29.8425 19.9194L29.8267 20.1045C29.7392 21.1223 29.6097 22.1331 29.4155 22.8769C29.2567 23.4819 28.9444 24.0338 28.5098 24.4773C28.0751 24.9208 27.5334 25.2403 26.9391 25.4039C24.9089 25.9591 17.1927 25.9982 16.1234 26H15.8749C15.3341 26 13.0974 25.9893 10.7523 25.9075L10.4548 25.8968L10.3025 25.8897L10.0033 25.8772L9.70398 25.8648C7.76136 25.7776 5.91149 25.637 5.05919 25.4021C4.46501 25.2387 3.92348 24.9194 3.48886 24.4763C3.05424 24.0331 2.74178 23.4816 2.58279 22.8769C2.38852 22.1349 2.25902 21.1223 2.17151 20.1045L2.15751 19.9176L2.14351 19.7325C2.05714 18.5267 2.00928 17.3184 2 16.1094L2 15.8906C2.0035 15.508 2.0175 14.1858 2.11201 12.7266L2.12426 12.5433L2.12951 12.4508L2.14351 12.2657L2.18201 11.803L2.19951 11.6179C2.28352 10.6944 2.40778 9.79749 2.58454 9.12305C2.74326 8.5181 3.0556 7.96621 3.49024 7.5227C3.92488 7.0792 4.46655 6.75966 5.06094 6.59614C5.91324 6.3648 7.76311 6.22244 9.70573 6.13346L10.0033 6.12101L10.3043 6.11033L10.4548 6.10499L10.754 6.09254C12.4196 6.03804 14.0859 6.00778 15.7524 6.00178H16.0901V6ZM13.2007 11.7123V20.286L20.4759 16.0009L13.2007 11.7123Z" fill="#FF001D"/>
</svg>
